<svg width="16" height="32" viewBox="0 0 16 32" fill="none" xmlns="http://www.w3.org/2000/svg">
<g clip-path="url(#clip0)">
<path opacity="0.8" d="M1.80403 31.6689C1.70977 31.7738 1.59437 31.8575 1.46545 31.9146C1.33653 31.9716 1.19701 32.0007 1.05603 32C0.915222 32.0006 0.775877 31.9714 0.647141 31.9143C0.518404 31.8573 0.40319 31.7736 0.309036 31.6689C0.110174 31.45 0 31.1648 0 30.869C0 30.5732 0.110174 30.288 0.309036 30.069L13.45 16L0.310028 1.93103C0.111166 1.71204 0.000991821 1.42679 0.000991821 1.13098C0.000991821 0.835174 0.111166 0.550043 0.310028 0.331055C0.404611 0.226735 0.519989 0.143356 0.648727 0.0863037C0.777466 0.0292515 0.916712 -0.000244141 1.05753 -0.000244141C1.19834 -0.000244141 1.3376 0.0292515 1.46634 0.0863037C1.59508 0.143356 1.71044 0.226735 1.80502 0.331055L15.692 15.2C15.8909 15.4189 16.0011 15.7042 16.0011 16C16.0011 16.2958 15.8909 16.5811 15.692 16.8L1.80502 31.6689H1.80403Z" fill="#313131"/>
</g>
<defs>
<clipPath id="clip0">
<rect width="16" height="32" fill="white"/>
</clipPath>
</defs>
</svg>
