<svg width="80" height="82" viewBox="0 0 80 82" fill="none" xmlns="http://www.w3.org/2000/svg">
<path opacity="0.78" d="M0 41C0 18.909 17.909 1 40 1C62.091 1 80 18.909 80 41C80 63.091 62.091 81 40 81C17.909 81 0 63.091 0 41Z" fill="#FAD097"/>
<path d="M70 3.07104V78.929C70 80.624 69.958 82 69.907 82H66.093C66.042 82 66 80.624 66 78.929V3.07104C66 1.37604 66.042 0 66.093 0H69.907C69.958 0 70 1.37604 70 3.07104Z" fill="white"/>
<path d="M14 3.07104V78.929C14 80.624 13.958 82 13.907 82H10.093C10.042 82 10 80.624 10 78.929V3.07104C10 1.37604 10.042 0 10.093 0H13.907C13.958 0 14 1.37604 14 3.07104Z" fill="white"/>
</svg>
