<svg width="84" height="55" viewBox="0 0 84 55" fill="none" xmlns="http://www.w3.org/2000/svg">
<path d="M80.423 49.635V5.375C80.423 4.385 79.623 3.583 78.64 3.583H5.35C4.8761 3.5849 4.4223 3.7746 4.0881 4.1105C3.7539 4.4464 3.5665 4.9011 3.567 5.375V49.635C3.567 50.625 4.367 51.427 5.35 51.427H78.64C79.114 51.4251 79.568 51.2355 79.902 50.8995C80.236 50.5636 80.424 50.1089 80.423 49.635ZM84 5.375V49.625C84 52.591 81.6 55 78.65 55H5.35C2.4 55 0 52.59 0 49.626V5.375C0 2.409 2.4 0 5.35 0H78.65C81.6 0 84 2.41 84 5.375Z" fill="#F5861F"/>
<path d="M38.152 48.424H11.307C11.0952 48.4233 10.8856 48.381 10.6901 48.2993C10.4947 48.2176 10.3172 48.0982 10.1679 47.948C10.0186 47.7978 9.9003 47.6197 9.8199 47.4237C9.7394 47.2278 9.6983 47.0179 9.699 46.806V40.256C9.699 36.69 12.524 33.778 16.039 33.663C16.075 33.661 19.364 33.783 20.231 30.229C18.9 29.176 17.801 27.666 17.074 25.85C16.7109 25.9376 16.3286 25.8957 15.993 25.7316C15.6575 25.5674 15.3897 25.2915 15.236 24.951C14.7161 23.8012 14.3668 22.5817 14.199 21.3311C14.1324 20.8624 14.0923 20.3902 14.079 19.917C13.985 16.933 14.853 14.082 16.524 11.892C18.268 9.607 20.669 8.302 23.288 8.218C24.5041 8.1766 25.714 8.4093 26.828 8.899H26.836C26.926 8.897 27.041 8.894 27.168 8.899C31.818 8.949 35.592 13.251 35.765 18.709C35.849 21.343 35.068 23.86 33.567 25.799C33.4176 25.9933 33.2256 26.1508 33.0058 26.2592C32.7859 26.3675 32.5441 26.4239 32.299 26.424C32.247 26.424 32.194 26.416 32.14 26.411C31.425 27.981 30.423 29.293 29.23 30.238C30.114 33.798 33.383 33.661 33.42 33.663C36.935 33.778 39.76 36.69 39.76 40.255V46.806C39.76 47.7 39.04 48.424 38.152 48.424ZM69.789 39.814H50.624C50.15 39.8126 49.695 39.6231 49.36 39.2869C49.026 38.9507 48.838 38.4954 48.839 38.021C48.839 37.031 49.639 36.229 50.624 36.229H69.789C70.777 36.229 71.575 37.032 71.575 38.021C71.575 39.011 70.777 39.814 69.789 39.814ZM69.789 29.798H50.624C50.149 29.7961 49.694 29.6057 49.359 29.2686C49.025 28.9314 48.837 28.4751 48.839 28C48.839 27.008 49.639 26.202 50.624 26.202H69.789C70.777 26.202 71.575 27.008 71.575 28C71.575 28.993 70.777 29.798 69.789 29.798ZM69.789 19.762H50.624C50.15 19.7606 49.695 19.5711 49.36 19.2349C49.026 18.8987 48.838 18.4434 48.839 17.969C48.839 16.979 49.639 16.176 50.624 16.176H69.789C70.777 16.176 71.575 16.979 71.575 17.969C71.575 18.959 70.777 19.762 69.789 19.762ZM79.213 4H5.786C4.802 4 4 4.805 4 5.798V50.202C4 51.195 4.802 52 5.786 52H79.213C80.198 52 81 51.195 81 50.202V5.798C81 4.805 80.198 4 79.213 4Z" fill="white"/>
<path d="M69.203 15.95C70.192 15.95 70.991 16.748 70.991 17.732C70.991 18.716 70.192 19.514 69.203 19.514H50.018C49.545 19.5146 49.09 19.3272 48.755 18.993C48.42 18.6589 48.231 18.2053 48.23 17.732C48.23 16.748 49.03 15.95 50.018 15.95H69.203Z" fill="#EC5B1C"/>
<path d="M69.203 25.89C70.192 25.89 70.991 26.688 70.991 27.672C70.991 28.656 70.192 29.454 69.203 29.454H50.018C49.545 29.4545 49.09 29.2671 48.755 28.933C48.42 28.5989 48.231 28.1453 48.23 27.672C48.23 26.688 49.03 25.89 50.018 25.89H69.203Z" fill="#EC5B1C"/>
<path d="M69.203 35.83C70.192 35.83 70.991 36.6281 70.991 37.6121C70.991 38.5961 70.192 39.394 69.203 39.394H50.018C49.545 39.3946 49.09 39.2072 48.755 38.873C48.42 38.5389 48.231 38.0854 48.23 37.6121C48.23 36.6281 49.03 35.83 50.018 35.83H69.203Z" fill="#EC5B1C"/>
<path d="M19.5251 35.308C20.9689 34.377 22.0429 32.9716 22.5621 31.334C23.5839 31.5736 24.6473 31.5736 25.6691 31.334C26.188 32.972 27.2625 34.3775 28.7071 35.308C28.3611 36.2473 27.7355 37.0578 26.9144 37.6304C26.0934 38.2029 25.1165 38.51 24.1156 38.51C23.1146 38.51 22.1377 38.2029 21.3167 37.6304C20.4957 37.0578 19.87 36.2473 19.5241 35.308H19.5251ZM24.1051 28.307C21.8311 28.307 19.7891 26.161 19.0241 23.089C19.4301 22.788 19.8781 22.567 20.3341 22.371C21.1661 22.016 22.2901 22.0359 22.4121 22.0389C24.4841 22.1109 26.3771 21.143 27.4281 19.496C28.2738 20.1502 28.9501 20.998 29.4001 21.968C28.9031 25.568 26.6561 28.307 24.1051 28.307ZM27.3581 15.775C27.1582 15.6912 26.9435 15.6485 26.7268 15.6496C26.5101 15.6508 26.2958 15.6958 26.0969 15.7819C25.898 15.8679 25.7185 15.9932 25.5692 16.1503C25.4199 16.3074 25.3038 16.493 25.2281 16.696C25.1033 17.0305 24.9529 17.3548 24.7781 17.666C24.3551 18.42 23.4911 18.864 22.5231 18.833C21.3927 18.792 20.2653 18.9739 19.2051 19.368C18.3269 19.6986 17.508 20.1689 16.7801 20.761L16.7591 20.614C16.7092 20.2647 16.6792 19.9128 16.6691 19.5601C16.5981 17.34 17.2311 15.244 18.4521 13.66C19.5981 12.172 21.1321 11.322 22.7711 11.27C22.8251 11.269 24.1101 11.167 25.1911 11.805C25.4191 11.939 25.6961 11.9779 25.9571 11.9709C25.9911 11.9709 26.4741 11.946 26.4971 11.946C29.3801 11.966 31.8211 14.936 31.9371 18.568C31.9491 18.983 31.9331 19.395 31.8881 19.796C30.8231 17.974 29.2411 16.563 27.3581 15.776V15.775ZM12.2881 44.712V39.822C12.2881 37.985 13.7881 36.49 15.6311 36.49C15.6681 36.49 16.2551 36.456 16.5071 36.422C17.0822 37.9755 18.119 39.3157 19.4781 40.2628C20.8372 41.2099 22.4535 41.7183 24.1101 41.72C25.7666 41.7185 27.383 41.21 28.7422 40.2629C30.1013 39.3159 31.138 37.9755 31.7131 36.422C31.9651 36.456 32.5521 36.49 32.5891 36.49C33.4739 36.4897 34.3226 36.8403 34.9493 37.465C35.576 38.0896 35.9294 38.9372 35.9321 39.822V44.712H12.2881ZM32.8051 33.288C32.7701 33.286 29.4981 33.4209 28.6131 29.8929C29.8071 28.9549 30.8101 27.655 31.5261 26.099C31.5791 26.104 31.6331 26.111 31.6851 26.111C32.1731 26.111 32.6451 25.891 32.9541 25.493C34.4561 23.57 35.2371 21.075 35.1531 18.465C34.9791 13.055 31.2031 8.79003 26.5501 8.74003C26.4231 8.73503 26.3091 8.73803 26.2181 8.74003H26.2111C25.0947 8.25413 23.8839 8.02343 22.6671 8.06493C20.0471 8.14793 17.6441 9.44203 15.8991 11.707C14.2281 13.877 13.3591 16.704 13.4531 19.662C13.4701 20.162 13.5091 20.624 13.5731 21.062C13.7471 22.322 14.0951 23.529 14.6101 24.652C14.7656 24.991 15.0343 25.2653 15.3701 25.4277C15.7059 25.5901 16.0877 25.6306 16.4501 25.542C17.1771 27.342 18.2771 28.84 19.6091 29.884C18.7421 33.407 15.4501 33.286 15.4151 33.288C11.8961 33.402 9.07007 36.288 9.07007 39.822V46.316C9.07007 47.202 9.79007 47.92 10.6791 47.92H37.5411C38.43 47.92 39.151 47.202 39.151 46.316V39.822C39.151 36.289 36.3241 33.402 32.8051 33.288Z" fill="#EC5B1C"/>
</svg>
