<svg width="68" height="68" viewBox="0 0 68 68" fill="none" xmlns="http://www.w3.org/2000/svg">
<path d="M64.607 22.983C64.607 12.158 55.659 3.35 44.661 3.35C33.662 3.35 24.715 12.158 24.715 22.983C24.715 25.724 25.277 28.376 26.385 30.863C26.672 31.506 26.514 32.231 26.045 32.705L26.031 32.72L3.403 54.993V58.019L22.035 39.679C22.3246 39.3962 22.7133 39.2379 23.118 39.2379C23.5228 39.2379 23.9115 39.3962 24.201 39.679C24.798 40.269 24.798 41.222 24.201 41.812L3.403 62.2841V64.65H11.0649L13.4611 62.295V57.214C13.4611 56.289 14.223 55.5389 15.162 55.5389H19.322V53.897C19.322 52.973 20.085 52.223 21.024 52.223H22.692V48.62C22.692 47.694 23.454 46.9449 24.394 46.9449H29.052L34.766 41.319L34.782 41.306C35.026 41.0726 35.334 40.9164 35.667 40.8568C36 40.7972 36.343 40.8369 36.653 40.9709C39.181 42.0627 41.907 42.6227 44.661 42.616C55.659 42.616 64.607 33.809 64.607 22.983ZM44.654 0C57.527 0 68 10.31 68 22.983C68 35.656 57.527 45.965 44.654 45.965C41.791 45.965 39.009 45.465 36.369 44.475L30.955 49.8051C30.637 50.1171 30.203 50.295 29.7531 50.295H26.0909V53.8979C26.0909 54.8239 25.329 55.572 24.39 55.572H22.723V57.214C22.723 58.14 21.96 58.889 21.021 58.889H16.861V62.991C16.861 63.434 16.681 63.861 16.361 64.175L12.969 67.509C12.651 67.824 12.2189 68 11.7679 68H1.701C0.761996 68 0 67.25 0 66.325V54.3C0 53.857 0.180001 53.43 0.498001 53.116L22.822 31.139C21.8173 28.5378 21.3043 25.7726 21.309 22.984C21.309 10.311 31.781 0.0009799 44.654 0.0009799V0Z" fill="#F5861F"/>
<path d="M58.51 15.74C58.51 12.229 55.609 9.37 52.041 9.37C48.472 9.37 45.571 12.229 45.571 15.74C45.571 19.25 48.472 22.108 52.041 22.108C55.609 22.108 58.511 19.25 58.511 15.739L58.51 15.74ZM44.82 2.91003C55.991 2.91003 65.081 11.851 65.081 22.84C65.081 33.83 55.991 42.769 44.821 42.769C41.991 42.769 39.255 42.208 36.686 41.099C36.371 40.9629 36.022 40.9226 35.684 40.983C35.346 41.0435 35.034 41.202 34.785 41.439L34.769 41.453L28.965 47.163H24.233C23.278 47.163 22.504 47.923 22.504 48.863V52.521H20.8101C19.8561 52.521 19.082 53.2829 19.082 54.2209V55.887H14.856C13.901 55.887 13.127 56.649 13.127 57.587V62.746L10.693 65.136H2.91003V62.734L24.037 41.953C24.1812 41.812 24.2958 41.6437 24.374 41.4578C24.4522 41.2719 24.4926 41.0722 24.4926 40.8705C24.4926 40.6688 24.4522 40.4692 24.374 40.2833C24.2958 40.0974 24.1812 39.929 24.037 39.788C23.7427 39.5011 23.348 39.3406 22.937 39.3406C22.526 39.3406 22.1313 39.5011 21.837 39.788L2.91003 58.405V55.333L25.895 32.724L25.9091 32.709C26.1492 32.4689 26.3107 32.1616 26.3724 31.8278C26.4342 31.4939 26.3933 31.1491 26.255 30.839C25.1312 28.322 24.5532 25.5955 24.559 22.839C24.559 11.851 33.648 2.91003 44.82 2.91003Z" fill="#FAD097"/>
<path d="M54.917 15.8101C54.917 14.2071 53.597 12.9041 51.975 12.9041C50.352 12.9041 49.032 14.2071 49.032 15.8101C49.032 17.4141 50.352 18.717 51.975 18.717C53.597 18.717 54.917 17.4131 54.917 15.8101ZM51.975 9.57996C55.456 9.57996 58.289 12.3741 58.289 15.8051C58.289 19.2371 55.456 22.031 51.975 22.031C48.492 22.031 45.66 19.2371 45.66 15.8051C45.66 12.3741 48.492 9.57996 51.975 9.57996Z" fill="#EC5B1C"/>
</svg>
