<svg width="68" height="59" viewBox="0 0 68 59" fill="none" xmlns="http://www.w3.org/2000/svg">
<path d="M27.728 51.11V48.2H40.272V51.11C40.272 52.931 40.912 54.61 41.979 55.947H26.02C27.1233 54.5761 27.7254 52.8697 27.727 51.11H27.728ZM3.135 33.136V3.999C3.1387 3.7451 3.2428 3.503 3.4246 3.3257C3.6064 3.1484 3.8511 3.0503 4.105 3.053H63.885C64.139 3.0503 64.384 3.1484 64.565 3.3257C64.747 3.503 64.851 3.7451 64.855 3.999V33.136H3.135ZM63.885 45.146H4.105C3.8513 45.1489 3.6068 45.0512 3.425 44.8743C3.2432 44.6973 3.139 44.4557 3.135 44.202V36.179H64.855V44.202C64.851 44.4559 64.747 44.6979 64.565 44.875C64.383 45.0521 64.139 45.1499 63.885 45.147V45.146ZM63.895 0H4.105C1.842 0 0 1.794 0 3.998V44.202C0 46.406 1.842 48.2 4.105 48.2H24.593V51.11C24.593 53.777 22.366 55.947 19.627 55.947H15.111C14.246 55.947 13.544 56.629 13.544 57.473C13.544 58.316 14.246 59 15.111 59H52.889C53.754 59 54.457 58.316 54.457 57.473C54.457 56.629 53.754 55.947 52.889 55.947H48.373C45.634 55.947 43.407 53.777 43.407 51.11V48.2H63.895C66.158 48.2 68 46.406 68 44.202V3.998C68 1.794 66.158 0 63.895 0Z" fill="#EC5B1C"/>
<path d="M65 36V44.499C65.003 44.761 64.902 45.0135 64.72 45.2012C64.537 45.3888 64.287 45.4963 64.025 45.5H3.97501C3.71301 45.4963 3.46332 45.3888 3.28052 45.2012C3.09772 45.0135 2.99681 44.761 3.00001 44.499V36H65Z" fill="#F5861F"/>
<path d="M65 3.943V33H3V3.943C3 3.423 3.438 3 3.975 3H64.025C64.562 3 65 3.423 65 3.943Z" fill="#FAD097"/>
<path d="M44.453 15.547C45.183 16.277 45.183 17.46 44.453 18.191L39.191 23.452C39.018 23.6262 38.812 23.7644 38.585 23.8586C38.358 23.9529 38.115 24.0015 37.87 24.0015C37.624 24.0015 37.381 23.9529 37.154 23.8586C36.927 23.7644 36.721 23.6262 36.548 23.452C36.374 23.2786 36.237 23.0727 36.143 22.8461C36.049 22.6194 36 22.3764 36 22.131C36 21.8856 36.049 21.6427 36.143 21.416C36.237 21.1893 36.374 20.9835 36.548 20.8101L41.809 15.547C42.16 15.197 42.635 15.0004 43.131 15.0004C43.627 15.0004 44.102 15.197 44.453 15.547Z" fill="#EC5B1C"/>
<path d="M42 56H25C26.1885 54.3678 26.8257 52.3991 26.819 50.38V47H40.181V50.38C40.181 52.497 40.863 54.446 42 56Z" fill="#FAD097"/>
<path d="M37.442 11.5551C38.124 12.1601 38.124 13.1441 37.442 13.7491L25.084 24.715C24.7415 25.0128 24.3018 25.1747 23.848 25.1701C23.4 25.1701 22.952 25.02 22.611 24.715C21.93 24.11 21.93 23.128 22.611 22.521L34.968 11.5551C35.652 10.9481 36.758 10.9481 37.442 11.5551Z" fill="#EC5B1C"/>
<path d="M32.56 41.1949C32.56 40.2699 33.404 39.52 34.445 39.52C35.486 39.52 36.33 40.2699 36.33 41.1949C36.33 42.1199 35.486 42.87 34.445 42.87C33.404 42.87 32.56 42.1199 32.56 41.1949Z" fill="#EC5B1C"/>
</svg>
