<svg width="53" height="70" viewBox="0 0 53 70" fill="none" xmlns="http://www.w3.org/2000/svg">
<path d="M26.503 57.928C26.459 57.9289 26.416 57.9187 26.377 57.8984C26.338 57.8782 26.305 57.8485 26.281 57.812L18.047 46.024C20.42 44.1814 22.04 41.5371 22.604 38.5861C23.847 39.0381 25.155 39.281 26.504 39.281C27.84 39.281 29.146 39.046 30.397 38.595C30.963 41.5436 32.584 44.1849 34.957 46.025L26.724 57.812C26.7 57.8484 26.667 57.8781 26.629 57.8984C26.59 57.9187 26.548 57.9288 26.504 57.928H26.503ZM26.503 36.1281C23.755 36.1281 21.091 34.7149 19.002 32.1479C16.962 29.6429 15.627 26.2581 15.203 22.5551C17.1823 20.7795 18.7402 18.5844 19.763 16.13C20.8769 17.1699 22.345 17.7463 23.869 17.7419H34.555C36.066 17.7419 37.369 18.654 37.95 19.959L37.949 19.9919C37.949 28.8889 32.815 36.1281 26.503 36.1281ZM34.555 14.59H23.869C23.234 14.59 22.631 14.39 22.124 14.01C21.6925 13.6869 21.3585 13.2509 21.159 12.75C21.0102 12.3742 20.7462 12.0551 20.4048 11.8386C20.0635 11.6221 19.6624 11.5194 19.259 11.545C18.8529 11.5712 18.4655 11.7251 18.1522 11.9849C17.839 12.2446 17.6159 12.5967 17.515 12.991C16.8913 15.3841 15.6713 17.5802 13.969 19.374C12.392 12.852 15.238 6.3769 20.365 4.88794C20.9504 4.72011 21.5536 4.6218 22.162 4.59497C22.391 4.58497 22.617 4.52402 22.821 4.41602C24.407 3.57802 26.089 3.15198 27.817 3.15198C34.232 3.15198 39.452 8.922 39.452 16.015C39.452 16.228 39.446 16.439 39.436 16.65C38.801 15.9983 38.042 15.4803 37.204 15.1265C36.366 14.7727 35.465 14.5903 34.555 14.59ZM49.855 66.858H3.136V56.2679C3.136 52.0379 6.556 48.598 10.761 48.598C10.817 48.598 13.339 48.536 15.333 47.625L23.71 59.63C24.024 60.0789 24.441 60.4456 24.926 60.6992C25.411 60.9528 25.95 61.0859 26.498 61.087C27.045 61.0862 27.585 60.9532 28.07 60.6996C28.555 60.4459 28.972 60.0791 29.285 59.63L37.662 47.627C39.935 48.598 42.173 48.598 42.23 48.598C46.435 48.598 49.855 52.0389 49.855 56.2679V66.858ZM42.608 45.455C42.552 45.448 34.538 45.686 33.346 37.051C34.671 36.122 35.891 34.916 36.966 33.452C39.057 30.606 40.406 27.036 40.886 23.172C41.056 23.0176 41.19 22.8278 41.279 22.616C42.15 20.5248 42.595 18.2811 42.588 16.016C42.588 7.184 35.961 0 27.817 0C25.687 0 23.622 0.49304 21.67 1.46704C20.925 1.52404 20.195 1.65699 19.496 1.85999C16.15 2.82999 13.429 5.324 11.831 8.88C10.281 12.333 9.975 16.398 10.971 20.326C11.182 21.155 11.449 21.97 11.767 22.75C11.852 22.96 11.98 23.14 12.134 23.288C12.911 29.316 15.764 34.311 19.656 37.038C18.459 45.688 10.449 45.448 10.392 45.455C4.629 45.65 0 50.423 0 56.264V68.424C0 69.294 0.702001 70 1.568 70H51.432C52.298 70 53 69.294 53 68.424V56.264C53 50.423 48.37 45.65 42.608 45.454V45.455Z" fill="#EC5B1C"/>
<path d="M50 56.163V66.996H3V56.163C3 51.836 6.44 48.3149 10.67 48.3149C10.728 48.3149 13.265 48.2519 15.27 47.3199L23.698 59.6021C24.01 60.0594 24.428 60.434 24.916 60.6937C25.405 60.9535 25.95 61.0905 26.503 61.093C27.061 61.093 27.6 60.953 28.083 60.698C28.573 60.4361 28.992 60.0602 29.306 59.6021L37.734 47.322C40.02 48.316 42.272 48.316 42.329 48.316C46.559 48.316 50 51.836 50 56.163Z" fill="#FAD097"/>
<path d="M39.5 16.257C39.5 16.476 39.494 16.694 39.484 16.911C38.236 15.602 36.501 14.788 34.587 14.788H23.867C23.233 14.7894 22.618 14.5793 22.117 14.191C21.6812 13.8545 21.346 13.4048 21.148 12.891C20.838 12.095 20.074 11.596 19.242 11.65C18.407 11.705 17.706 12.303 17.494 13.14C16.8743 15.5947 15.6512 17.8558 13.936 19.718C12.354 12.997 15.208 6.324 20.353 4.78796C20.9393 4.6151 21.5444 4.5137 22.155 4.48596C22.385 4.47596 22.611 4.41298 22.815 4.30298C24.407 3.43898 26.095 3 27.828 3C34.263 3 39.5 8.947 39.5 16.257Z" fill="#F5861F"/>
<path d="M37.896 19.687L37.894 19.72C37.894 28.497 32.755 35.64 26.439 35.64C23.689 35.64 21.023 34.244 18.932 31.713C16.89 29.241 15.554 25.903 15.13 22.248C17.1062 20.5033 18.6657 18.3374 19.694 15.91C20.8156 16.9375 22.283 17.5052 23.804 17.5H34.497C36.01 17.5 37.313 18.4 37.896 19.687Z" fill="white"/>
<path d="M34.893 45.4L26.654 57.027C26.63 57.0634 26.597 57.0932 26.558 57.1135C26.52 57.1338 26.477 57.1439 26.433 57.1429C26.389 57.144 26.346 57.1341 26.307 57.1138C26.268 57.0935 26.234 57.0636 26.21 57.027L17.97 45.397C20.3366 43.5917 21.9591 40.9813 22.53 38.0601C25.05 38.9707 27.808 38.9741 30.33 38.0699C30.903 40.9892 32.527 43.5971 34.893 45.4Z" fill="white"/>
</svg>
